<?xml version="1.0" standalone="no"?>
<!DOCTYPE svg PUBLIC "-//W3C//DTD SVG 20010904//EN"
 "http://www.w3.org/TR/2001/REC-SVG-20010904/DTD/svg10.dtd">
<svg version="1.0" xmlns="http://www.w3.org/2000/svg"
 width="611.000000pt" height="408.000000pt" viewBox="0 0 611.000000 408.000000"
 preserveAspectRatio="xMidYMid meet">

<g transform="translate(0.000000,408.000000) scale(0.100000,-0.100000)"
fill="#000000" stroke="none">
<path d="M2485 2726 c-147 -35 -253 -92 -350 -191 -80 -81 -126 -153 -161
-253 -67 -193 -51 -405 44 -587 49 -95 172 -218 267 -267 123 -64 202 -83 345
-83 149 0 204 12 330 72 92 44 101 51 284 235 103 104 192 186 196 181 4 -4
78 -106 164 -226 87 -119 168 -224 179 -232 15 -11 48 -15 109 -15 49 0 88 3
88 6 0 10 -522 724 -529 723 -3 0 -100 -109 -216 -241 -221 -254 -267 -295
-382 -338 -141 -53 -303 -45 -440 21 -98 48 -208 160 -256 259 -79 166 -75
340 11 504 93 178 289 296 493 296 112 0 226 -37 320 -105 l48 -34 88 102 c48
56 99 114 112 130 l24 29 -100 -4 c-91 -3 -104 -6 -127 -27 l-25 -24 -48 21
c-98 41 -157 53 -283 58 -86 2 -144 -1 -185 -10z"/>
<path d="M3080 2444 c-128 -148 -242 -279 -253 -291 l-20 -23 100 0 101 0 226
234 c191 198 226 239 226 264 0 50 -29 74 -92 80 l-55 4 -233 -268z"/>
<path d="M3759 2703 c-9 -2 -189 -185 -400 -406 -211 -221 -409 -426 -440
-457 -78 -77 -161 -120 -247 -127 -138 -11 -241 47 -303 173 -29 58 -32 75
-33 152 0 74 4 96 27 147 54 117 135 175 254 183 110 7 115 1 56 -61 -58 -61
-69 -88 -53 -126 13 -33 47 -51 95 -51 31 0 44 12 158 143 142 161 140 151 37
206 -243 130 -524 65 -673 -157 -65 -95 -90 -176 -91 -287 -2 -228 142 -424
363 -495 59 -19 86 -22 168 -18 110 5 181 27 263 79 49 32 126 117 855 949 61
69 116 133 124 143 12 16 8 17 -65 16 -44 -1 -86 -3 -95 -6z"/>
<path d="M3745 2428 c-136 -156 -249 -289 -252 -295 -3 -7 93 -147 212 -310
374 -512 335 -463 372 -463 71 0 119 53 95 105 -6 13 -113 162 -238 332 -125
169 -227 313 -228 319 -1 6 97 114 218 239 120 126 223 239 229 252 13 30 -6
77 -39 92 -14 6 -47 11 -73 11 l-48 0 -248 -282z"/>
</g>
</svg>
